<?xml version="1.0" encoding="utf-8"?>
<!-- Generator: Adobe Illustrator 19.0.0, SVG Export Plug-In . SVG Version: 6.00 Build 0)  -->
<svg version="1.1" id="Layer_1" xmlns="http://www.w3.org/2000/svg" xmlns:xlink="http://www.w3.org/1999/xlink" x="0px" y="0px"
	 viewBox="334 -4 1280 800" style="enable-background:new 334 -4 1280 800;" xml:space="preserve">
<style type="text/css">
	.st0{display:none;}
	.st1{fill:#FFFFFF;}
</style>
<rect id="Black_bg" x="500.8" y="231.3" class="st0" width="946.3" height="329.4"/>
<g id="Compiler_Explorer">
	<g id="Explorer">
		<path id="XMLID_10_" class="st1" d="M850.7,421.4h-24.1v13h22.8v17.1h-22.8V465h24.1v17.1h-44.3v-77.9h44.3V421.4z"/>
		<path id="XMLID_16_" class="st1" d="M895.3,440.6l-24.9-36.3h24.9l11.9,20.1l11.9-20.1H944l-24.9,36.3l28.8,41.6h-24.4l-16.3-25.4
			l-17.9,25.4h-24.5L895.3,440.6z"/>
		<path id="XMLID_18_" class="st1" d="M962.3,482.2v-77.9h31c8.7,0,15.6,2.1,20.7,6.4c5.1,4.2,7.6,10.7,7.6,19.3
			c0,17.6-9.2,26.4-27.6,26.4h-11.5v25.8L962.3,482.2L962.3,482.2z M982.6,420.6V440h3.4c1.9,0,3.4,0,4.4-0.1c1,0,2.3-0.2,3.8-0.6
			c1.5-0.3,2.7-0.8,3.5-1.4s1.4-1.5,2-2.8c0.6-1.2,0.9-2.8,0.9-4.6c0-1.9-0.3-3.5-0.8-4.8c-0.6-1.3-1.2-2.3-2-2.9
			c-0.8-0.7-1.9-1.2-3.4-1.5s-2.8-0.5-3.8-0.6c-1.1-0.1-2.6-0.1-4.6-0.1H982.6z"/>
		<path id="XMLID_22_" class="st1" d="M1058.2,404.3V465h24.3v17.1H1038v-77.9L1058.2,404.3L1058.2,404.3z"/>
		<path id="XMLID_25_" class="st1" d="M1114.7,406.7c6.5-3.3,13.6-5,21.1-5s14.5,1.7,21.1,5c6.5,3.3,11.8,8.1,15.9,14.3
			c4.1,6.2,6.1,13.1,6.1,20.8c0,12.6-4,22.9-12.1,30.9c-8.1,8-18.4,12-30.9,12s-22.8-4-30.9-12c-8.1-8-12.1-18.3-12.1-30.9
			c0-7.6,2-14.6,6.1-20.8C1102.8,414.8,1108.1,410.1,1114.7,406.7z M1151.2,427.5c-4.3-4.1-9.5-6.2-15.5-6.2s-11.2,2.1-15.5,6.2
			c-4.3,4.1-6.5,8.9-6.5,14.4c0,6.6,2.1,12.1,6.4,16.6c4.3,4.4,9.5,6.7,15.6,6.7c6.1,0,11.3-2.2,15.6-6.7c4.3-4.4,6.4-10,6.4-16.6
			C1157.8,436.5,1155.6,431.7,1151.2,427.5z"/>
		<path id="XMLID_28_" class="st1" d="M1237.5,450.3l24.5,31.9h-25.2l-19.1-30h-0.2v30h-20.2v-77.9h30.3c8.1,0,14.7,2,19.6,6
			c5,4,7.4,10,7.4,18c0,5.6-1.5,10.4-4.5,14.5C1247,446.8,1242.8,449.3,1237.5,450.3z M1217.4,419.8v19.4h2c9.4,0,14-3.2,14-9.7
			s-4.7-9.7-14-9.7L1217.4,419.8L1217.4,419.8z"/>
		<path id="XMLID_31_" class="st1" d="M1320.5,421.4h-24.1v13h22.8v17.1h-22.8V465h24.1v17.1h-44.3v-77.9h44.3V421.4z"/>
		<path id="XMLID_33_" class="st1" d="M1382.3,450.3l24.5,31.9h-25.2l-19.1-30h-0.2v30H1342v-77.9h30.3c8.1,0,14.7,2,19.6,6
			c5,4,7.4,10,7.4,18c0,5.6-1.5,10.4-4.5,14.5C1391.9,446.8,1387.7,449.3,1382.3,450.3z M1362.3,419.8v19.4h2c9.4,0,14-3.2,14-9.7
			s-4.7-9.7-14-9.7L1362.3,419.8L1362.3,419.8z"/>
	</g>
	<g id="Compiler">
		<path id="XMLID_36_" class="st1" d="M866,311.7v24.4c-2.1-2.8-4.7-4.9-7.8-6.4c-3.2-1.5-6.5-2.2-10-2.2c-6.2,0-11.2,2.1-15.1,6.2
			c-3.9,4.2-5.8,9.3-5.8,15.5s2,11.3,5.9,15.3s9,6,15.3,6c3.3,0,6.5-0.7,9.7-2.2c3.1-1.5,5.7-3.5,7.9-6.1v24.4
			c-7.9,2.4-13.9,3.6-18,3.6c-11.1,0-20.9-3.8-29.4-11.5c-8.4-7.5-12.6-17.4-12.6-29.6c0-11.2,3.8-20.8,11.5-28.7
			c3.9-3.9,8.4-7,13.7-9.3c5.3-2.2,10.6-3.4,16.1-3.4C853.4,307.8,859.6,309.1,866,311.7z"/>
		<path id="XMLID_38_" class="st1" d="M904.4,312.3c6.6-3.4,13.6-5,21.2-5c7.5,0,14.6,1.7,21.2,5c6.6,3.4,11.9,8.2,16,14.4
			c4.1,6.2,6.1,13.2,6.1,20.9c0,12.7-4.1,23-12.2,31.1c-8.1,8.1-18.5,12.1-31.1,12.1s-23-4-31.1-12.1s-12.2-18.4-12.2-31.1
			c0-7.7,2-14.6,6.1-20.9S897.8,315.6,904.4,312.3z M941.2,333.2c-4.4-4.2-9.6-6.2-15.6-6.2s-11.2,2.1-15.6,6.2
			c-4.4,4.2-6.5,9-6.5,14.4c0,6.6,2.1,12.2,6.4,16.7c4.3,4.5,9.5,6.7,15.7,6.7s11.4-2.2,15.7-6.7s6.4-10,6.4-16.7
			C947.7,342.2,945.6,337.4,941.2,333.2z"/>
		<path id="XMLID_41_" class="st1" d="M981.5,388.1l13.3-78.3h20l15.9,41.9l16.8-41.9h20.3l11.8,78.3h-20.4l-5.7-45.1h-0.2
			l-18.8,45.1h-8.1l-18-45.1h-0.2l-6.5,45.1L981.5,388.1L981.5,388.1z"/>
		<path id="XMLID_43_" class="st1" d="M1097.3,388.1v-78.3h31.2c8.8,0,15.7,2.1,20.8,6.4c5.1,4.3,7.6,10.7,7.6,19.4
			c0,17.7-9.2,26.6-27.7,26.6h-11.5v26L1097.3,388.1L1097.3,388.1z M1117.7,326.2v19.5h3.4c1.9,0,3.4,0,4.4-0.1c1,0,2.3-0.2,3.8-0.6
			c1.6-0.3,2.7-0.8,3.5-1.5c0.8-0.6,1.4-1.6,2-2.8c0.6-1.2,0.9-2.8,0.9-4.7c0-1.9-0.3-3.5-0.8-4.8c-0.6-1.3-1.2-2.3-2-3
			c-0.8-0.7-1.9-1.2-3.4-1.5s-2.8-0.5-3.8-0.6c-1.1-0.1-2.6-0.1-4.6-0.1h-3.4V326.2z"/>
		<path id="XMLID_46_" class="st1" d="M1194,309.8v78.3h-20.4v-78.3H1194z"/>
		<path id="XMLID_48_" class="st1" d="M1236.6,309.8v61.1h24.4v17.2h-44.8v-78.3H1236.6z"/>
		<path id="XMLID_50_" class="st1" d="M1320.4,327.1h-24.2v13.1h23v17.2h-23v13.5h24.2v17.2h-44.6v-78.3h44.6V327.1z"/>
		<path id="XMLID_52_" class="st1" d="M1382.6,356.1l24.6,32.1h-25.3l-19.2-30.1h-0.2v30.1H1342v-78.3h30.4c8.2,0,14.7,2,19.7,6
			s7.5,10,7.5,18.1c0,5.6-1.5,10.5-4.5,14.5C1392.2,352.6,1388,355.1,1382.6,356.1z M1362.4,325.4v19.5h2c9.4,0,14.1-3.3,14.1-9.8
			s-4.7-9.8-14.1-9.8L1362.4,325.4L1362.4,325.4z"/>
	</g>
</g>
<g id="CE">
	<path id="C" class="st1" d="M756.8,452.7c-1.1-2.1-1.1-4.6,0-6.6c1.4-2.5,2.6-5,3.8-7.6c0.8-1.9-0.5-4-2.6-4h-22.5
		c-2.3,0-4.5,1.2-5.7,3.1c-2.9,4.4-6.3,8.7-10.1,12.5c-14.5,14.5-33.7,22.4-54.1,22.4c-20.5,0-39.7-8-54.1-22.4
		C596.9,435.7,589,416.5,589,396s8-39.7,22.4-54.1c14.5-14.5,33.7-22.4,54.1-22.4c20.5,0,39.7,8,54.1,22.4
		c3.9,3.9,7.2,8.1,10.1,12.5c1.3,1.9,3.4,3.1,5.7,3.1H758c2.1,0,3.4-2.1,2.6-4c-1.2-2.6-2.4-5.1-3.8-7.6c-1.1-2.1-1.1-4.6,0-6.6
		l7.6-13.8c1.5-2.7,1-6-1.2-8.2l-19.1-19.1c-2.2-2.2-5.5-2.6-8.2-1.2l-13.9,7.7c-2.1,1.1-4.6,1.1-6.6,0c-6.6-3.6-13.6-6.5-20.8-8.6
		c-2.3-0.7-4.1-2.4-4.7-4.7l-4.4-15.2c-0.9-2.9-3.5-5-6.6-5h-27c-3.1,0-5.8,2-6.6,5l-4.4,15.2c-0.7,2.3-2.4,4-4.7,4.7
		c-7.2,2.1-14.2,5-20.8,8.6c-2.1,1.1-4.6,1.2-6.6,0l-13.9-7.7c-2.7-1.5-6-1-8.2,1.2l-19.1,19.1c-2.2,2.2-2.6,5.5-1.2,8.2l7.7,13.9
		c1.1,2.1,1.1,4.6,0,6.6c-3.6,6.6-6.5,13.6-8.6,20.8c-0.7,2.3-2.4,4.1-4.7,4.7l-15.2,4.4c-2.9,0.9-5,3.5-5,6.6v27c0,3.1,2,5.8,5,6.6
		l15.2,4.4c2.3,0.7,4,2.4,4.7,4.7c2.1,7.2,5,14.2,8.6,20.8c1.1,2.1,1.2,4.6,0,6.6l-7.7,13.9c-1.5,2.7-1,6,1.2,8.2l19.1,19.1
		c2.2,2.2,5.5,2.6,8.2,1.2l13.9-7.7c2.1-1.1,4.6-1.1,6.6,0c6.6,3.6,13.6,6.5,20.8,8.6c2.3,0.7,4.1,2.4,4.7,4.7l4.4,15.2
		c0.9,2.9,3.5,5,6.6,5h27c3.1,0,5.8-2,6.6-5l4.4-15.2c0.7-2.3,2.4-4,4.7-4.7c7.2-2.1,14.2-5,20.8-8.6c2.1-1.1,4.6-1.2,6.6,0
		l13.9,7.7c2.7,1.5,6,1,8.2-1.2l19.1-19.1c2.2-2.2,2.6-5.5,1.2-8.2L756.8,452.7z"/>
	<g id="E">
		<rect id="XMLID_15_" x="619.7" y="357.1" class="st1" width="92.7" height="17.2"/>
		<rect id="XMLID_14_" x="619.7" y="387.7" class="st1" width="76.4" height="17.2"/>
		<rect id="XMLID_13_" x="619.7" y="418.3" class="st1" width="92.7" height="17.2"/>
	</g>
</g>
</svg>
