<?xml version="1.0" encoding="utf-8"?>
<!-- Generator: Adobe Illustrator 19.0.0, SVG Export Plug-In . SVG Version: 6.00 Build 0)  -->
<svg version="1.1" id="Layer_1" xmlns="http://www.w3.org/2000/svg" xmlns:xlink="http://www.w3.org/1999/xlink" x="0px" y="0px"
	 viewBox="0 0 1280 800" style="enable-background:new 0 0 1280 800;" xml:space="preserve">
<style type="text/css">
	.st0{display:none;}
	.st1{fill:#FFFFFF;}
</style>
<rect id="XMLID_2_" x="337.4" y="106.1" class="st0" width="605.3" height="595"/>
<g id="Compiler_Explorer">
	<g id="Explorer">
		<path id="XMLID_10_" class="st1" d="M450.2,576.1h-17.8v9.7h16.9v12.7h-16.9v10h17.8v12.7h-32.9v-57.8h32.9V576.1z"/>
		<path id="XMLID_16_" class="st1" d="M483.3,590.3l-18.5-26.9h18.5l8.8,14.9l8.8-14.9h18.5l-18.5,26.9l21.4,30.9h-18.1l-12.1-18.8
			l-13.3,18.8h-18.2L483.3,590.3z"/>
		<path id="XMLID_18_" class="st1" d="M533,621.2v-57.8h23c6.5,0,11.6,1.6,15.4,4.7c3.8,3.1,5.6,7.9,5.6,14.3
			c0,13.1-6.8,19.6-20.5,19.6H548v19.2H533z M548,575.5v14.4h2.5c1.4,0,2.5,0,3.3,0c0.7,0,1.7-0.2,2.8-0.4c1.1-0.3,2-0.6,2.6-1.1
			c0.6-0.5,1.1-1.1,1.5-2.1c0.4-0.9,0.7-2.1,0.7-3.4c0-1.4-0.2-2.6-0.6-3.6c-0.4-0.9-0.9-1.7-1.5-2.2c-0.6-0.5-1.4-0.9-2.5-1.1
			c-1.1-0.2-2-0.4-2.8-0.4c-0.8-0.1-1.9-0.1-3.4-0.1H548z"/>
		<path id="XMLID_22_" class="st1" d="M604.1,563.4v45h18v12.7h-33v-57.8H604.1z"/>
		<path id="XMLID_25_" class="st1" d="M646,565.2c4.9-2.5,10.1-3.7,15.6-3.7c5.6,0,10.8,1.2,15.6,3.7c4.9,2.5,8.8,6,11.8,10.6
			c3,4.6,4.5,9.7,4.5,15.4c0,9.3-3,17-9,22.9c-6,6-13.6,8.9-22.9,8.9c-9.3,0-16.9-3-22.9-8.9c-6-5.9-9-13.6-9-22.9
			c0-5.7,1.5-10.8,4.5-15.4C637.2,571.2,641.1,567.7,646,565.2z M673.1,580.7c-3.2-3.1-7-4.6-11.5-4.6c-4.4,0-8.3,1.5-11.5,4.6
			s-4.8,6.6-4.8,10.6c0,4.9,1.6,9,4.7,12.3c3.2,3.3,7,4.9,11.6,4.9c4.5,0,8.4-1.6,11.6-4.9c3.2-3.3,4.7-7.4,4.7-12.3
			C677.9,587.3,676.3,583.7,673.1,580.7z"/>
		<path id="XMLID_28_" class="st1" d="M737.1,597.5l18.2,23.7h-18.7L722.4,599h-0.2v22.2h-15v-57.8h22.4c6,0,10.9,1.5,14.6,4.4
			c3.7,3,5.5,7.4,5.5,13.3c0,4.1-1.1,7.7-3.3,10.7C744.2,594.9,741.1,596.8,737.1,597.5z M722.2,574.9v14.4h1.5
			c6.9,0,10.4-2.4,10.4-7.2c0-4.8-3.5-7.2-10.4-7.2H722.2z"/>
		<path id="XMLID_31_" class="st1" d="M798.7,576.1h-17.8v9.7h16.9v12.7h-16.9v10h17.8v12.7h-32.9v-57.8h32.9V576.1z"/>
		<path id="XMLID_33_" class="st1" d="M844.5,597.5l18.2,23.7h-18.7L829.8,599h-0.2v22.2h-15v-57.8h22.4c6,0,10.9,1.5,14.6,4.4
			c3.7,3,5.5,7.4,5.5,13.3c0,4.1-1.1,7.7-3.3,10.7C851.6,594.9,848.5,596.8,844.5,597.5z M829.6,574.9v14.4h1.5
			c6.9,0,10.4-2.4,10.4-7.2c0-4.8-3.5-7.2-10.4-7.2H829.6z"/>
	</g>
	<g id="Compiler">
		<path id="XMLID_36_" class="st1" d="M461.5,494.8v18.1c-1.5-2.1-3.5-3.6-5.8-4.7c-2.3-1.1-4.8-1.7-7.4-1.7
			c-4.6,0-8.3,1.5-11.2,4.6c-2.9,3.1-4.3,6.9-4.3,11.5c0,4.6,1.5,8.4,4.4,11.4c2.9,3,6.7,4.4,11.4,4.4c2.5,0,4.9-0.6,7.2-1.7
			c2.3-1.1,4.3-2.6,5.9-4.5v18.1c-5.9,1.8-10.3,2.7-13.3,2.7c-8.3,0-15.5-2.8-21.8-8.5c-6.2-5.6-9.3-12.9-9.3-22
			c0-8.3,2.8-15.4,8.5-21.3c2.9-2.9,6.3-5.2,10.2-6.9c3.9-1.7,7.9-2.5,11.9-2.5C452.2,491.8,456.8,492.8,461.5,494.8z"/>
		<path id="XMLID_38_" class="st1" d="M490,495.2c4.9-2.5,10.1-3.7,15.7-3.7c5.6,0,10.8,1.2,15.7,3.7c4.9,2.5,8.8,6,11.9,10.7
			c3,4.6,4.5,9.8,4.5,15.5c0,9.4-3,17.1-9.1,23.1c-6,6-13.7,9-23.1,9c-9.3,0-17-3-23.1-9c-6-6-9.1-13.7-9.1-23.1
			c0-5.7,1.5-10.9,4.5-15.5C481.2,501.2,485.2,497.7,490,495.2z M517.3,510.7c-3.2-3.1-7.1-4.6-11.6-4.6c-4.5,0-8.3,1.5-11.6,4.6
			c-3.2,3.1-4.9,6.7-4.9,10.7c0,4.9,1.6,9.1,4.8,12.4c3.2,3.3,7.1,5,11.6,5c4.6,0,8.4-1.7,11.6-5c3.2-3.3,4.8-7.4,4.8-12.4
			C522.2,517.3,520.6,513.8,517.3,510.7z"/>
		<path id="XMLID_41_" class="st1" d="M547.2,551.4l9.9-58.1h14.9l11.8,31l12.5-31h15l8.8,58.1h-15.1l-4.2-33.4h-0.2l-13.9,33.4h-6
			L567.2,518h-0.2l-4.9,33.4H547.2z"/>
		<path id="XMLID_43_" class="st1" d="M633.1,551.4v-58.1h23.1c6.5,0,11.7,1.6,15.4,4.7c3.8,3.2,5.7,7.9,5.7,14.4
			c0,13.1-6.9,19.7-20.6,19.7h-8.5v19.3H633.1z M648.2,505.5V520h2.5c1.4,0,2.5,0,3.3,0c0.7,0,1.7-0.2,2.9-0.4
			c1.2-0.3,2-0.6,2.6-1.1c0.6-0.5,1.1-1.2,1.5-2.1c0.4-0.9,0.7-2.1,0.7-3.5c0-1.4-0.2-2.6-0.6-3.6c-0.4-1-0.9-1.7-1.5-2.2
			c-0.6-0.5-1.4-0.9-2.5-1.1c-1.1-0.2-2.1-0.4-2.9-0.4c-0.8-0.1-1.9-0.1-3.4-0.1H648.2z"/>
		<path id="XMLID_46_" class="st1" d="M704.8,493.4v58.1h-15.1v-58.1H704.8z"/>
		<path id="XMLID_48_" class="st1" d="M736.4,493.4v45.3h18.1v12.8h-33.2v-58.1H736.4z"/>
		<path id="XMLID_50_" class="st1" d="M798.6,506.2h-17.9v9.7h17v12.8h-17v10h17.9v12.8h-33v-58.1h33V506.2z"/>
		<path id="XMLID_52_" class="st1" d="M844.7,527.6l18.3,23.8h-18.8l-14.3-22.3h-0.2v22.3h-15.1v-58.1h22.6c6.1,0,10.9,1.5,14.6,4.5
			c3.7,3,5.5,7.4,5.5,13.4c0,4.2-1.1,7.8-3.4,10.8C851.8,525.1,848.7,526.9,844.7,527.6z M829.7,504.9v14.5h1.5
			c7,0,10.5-2.4,10.5-7.2c0-4.8-3.5-7.2-10.5-7.2H829.7z"/>
	</g>
</g>
<g id="CE">
	<path id="C" class="st1" d="M730.9,376c-1.2-2.2-1.2-4.8,0-6.9c1.4-2.6,2.8-5.2,4-7.9c0.9-2-0.5-4.2-2.7-4.2h-23.6
		c-2.4,0-4.7,1.2-6,3.2c-3,4.6-6.6,9.1-10.6,13.1c-15.1,15.1-35.3,23.5-56.7,23.5c-21.4,0-41.5-8.3-56.7-23.5
		c-15.1-15.1-23.5-35.3-23.5-56.7s8.3-41.5,23.5-56.7c15.1-15.1,35.3-23.5,56.7-23.5c21.4,0,41.5,8.3,56.7,23.5
		c4,4,7.6,8.5,10.6,13.1c1.3,2,3.6,3.2,6,3.2h23.6c2.2,0,3.6-2.2,2.7-4.2c-1.2-2.7-2.5-5.3-4-7.9c-1.2-2.2-1.2-4.8,0-6.9l8-14.5
		c1.6-2.8,1.1-6.3-1.2-8.6l-20-20c-2.3-2.3-5.8-2.8-8.6-1.2l-14.5,8c-2.2,1.2-4.8,1.2-6.9,0c-6.9-3.8-14.2-6.8-21.8-9
		c-2.4-0.7-4.2-2.5-4.9-4.9l-4.6-15.9c-0.9-3.1-3.7-5.2-6.9-5.2h-28.3c-3.2,0-6,2.1-6.9,5.2l-4.6,15.9c-0.7,2.4-2.6,4.2-4.9,4.9
		c-7.6,2.2-14.9,5.2-21.8,9c-2.2,1.2-4.8,1.2-6.9,0l-14.5-8c-2.8-1.6-6.3-1.1-8.6,1.2l-20,20c-2.3,2.3-2.8,5.8-1.2,8.6l8,14.5
		c1.2,2.2,1.2,4.8,0,6.9c-3.8,6.9-6.8,14.2-9,21.8c-0.7,2.4-2.5,4.2-4.9,4.9l-15.9,4.6c-3.1,0.9-5.2,3.7-5.2,6.9v28.2
		c0,3.2,2.1,6,5.2,6.9l15.9,4.6c2.4,0.7,4.2,2.6,4.9,4.9c2.2,7.6,5.2,14.9,9,21.8c1.2,2.2,1.2,4.8,0,6.9l-8,14.5
		c-1.6,2.8-1.1,6.3,1.2,8.6l20,20c2.3,2.3,5.8,2.8,8.6,1.2l14.5-8c2.2-1.2,4.8-1.2,6.9,0c6.9,3.8,14.2,6.8,21.8,9
		c2.4,0.7,4.2,2.5,4.9,4.9l4.6,15.9c0.9,3.1,3.7,5.2,6.9,5.2h28.2c3.2,0,6-2.1,6.9-5.2l4.6-15.9c0.7-2.4,2.6-4.2,4.9-4.9
		c7.6-2.2,14.9-5.2,21.8-9c2.2-1.2,4.8-1.2,6.9,0l14.5,8c2.8,1.6,6.3,1.1,8.6-1.2l20-20c2.3-2.3,2.8-5.8,1.2-8.6L730.9,376z"/>
	<g id="E">
		<rect id="XMLID_15_" x="587.3" y="276" class="st1" width="97" height="18"/>
		<rect id="XMLID_14_" x="587.3" y="308" class="st1" width="80" height="18"/>
		<rect id="XMLID_13_" x="587.3" y="340" class="st1" width="97" height="18"/>
	</g>
</g>
</svg>
